<?xml version="1.0" encoding="UTF-8"?>
<svg width="26px" height="28px" viewBox="0 0 26 28" version="1.1" xmlns="http://www.w3.org/2000/svg" xmlns:xlink="http://www.w3.org/1999/xlink">
    <path d="M23.7035666,15.4661045 C24.3867163,14.5939004 24.3541853,13.3017462 23.5409119,12.4941499 C23.2806644,12.235719 22.9228241,12.0418959 22.5649838,11.9449843 C22.6951075,11.6542496 22.7601694,11.3312111 22.7601694,11.0081726 C22.7601694,10.3943993 22.5324529,9.8452338 22.1095507,9.42528369 C21.2962773,8.61768733 20.0601017,8.55307962 19.1817664,9.19915671 C19.0841736,8.94072587 18.9540498,8.68229504 18.7588642,8.45616805 C18.335962,8.00391409 17.7504052,7.7131794 17.1323174,7.7131794 C16.5467605,7.68087555 15.9612037,7.90700253 15.5383015,8.32695264 C15.4732396,8.23004107 15.4081778,8.10082566 15.3105849,8.03621795 C14.8876828,7.58396398 14.3021259,7.29322929 13.6840381,7.29322929 C13.0334194,7.26092544 12.4478625,7.51935628 12.0249603,7.93930638 L8.77186669,11.137388 C8.41402639,9.78062609 7.11278892,8.84381431 5.68142772,9.00533358 C5.29105648,9.03763743 4.93321617,9.23146056 4.67296868,9.4898914 C4.08741182,8.84381431 3.1765456,8.45616805 2.23314844,8.55307962 C1.35481315,8.64999118 0.671663481,9.39297983 0.671663481,10.2974878 L0.704194417,14.9815467 C0.704194417,16.2090931 0.541539734,17.4689434 0.248761305,18.5672745 L0.248761305,18.5995784 L0.248761305,18.5995784 C-0.401857427,20.8608482 0.248761305,23.2836372 1.90783907,24.9311338 C3.63197871,26.6432381 5.94167521,27.5800499 8.34896452,27.5800499 C8.54415013,27.5800499 8.77186669,27.5800499 8.96705231,27.547746 C9.87791853,27.8384807 10.8538466,28 11.7972438,28 C14.1394712,28 16.4816987,27.1277959 18.2383692,25.3510839 L24.51684,19.0841362 C24.9397422,18.6641861 25.1674587,18.0827167 25.1674587,17.5012473 C25.1674587,16.8874741 24.9397422,16.3383085 24.51684,15.9183584 C24.2891234,15.7245353 23.996345,15.563016 23.7035666,15.4661045 Z M12.9683575,8.87611816 C13.1635431,8.68229504 13.4237906,8.61768733 13.6515072,8.61768733 C13.9117547,8.61768733 14.1394712,8.74690274 14.3021259,8.90842202 C14.3997187,9.03763743 14.4647806,9.19915671 14.4647806,9.36067598 L9.09717606,14.8200274 L8.93452137,12.8494923 L12.9683575,8.87611816 Z M2.85123623,24.0266259 C1.51746783,22.7021679 1.02950378,20.7962405 1.51746783,19.0195285 L1.51746783,19.0195285 C1.87530813,17.7273743 2.03796282,16.3706124 2.03796282,15.0138505 L2.00543188,10.3297916 C2.00543188,10.1359685 2.16808656,9.94214536 2.36327218,9.94214536 C3.20907653,9.8452338 3.95728808,10.459007 4.05488089,11.2666034 L4.11994276,12.0418959 L4.1524737,15.4338006 C4.1524737,16.6613471 3.98981901,17.8888936 3.72957152,18.9872246 C3.72957152,19.0195285 3.69704058,19.0195285 3.69704058,19.0518323 C3.04642185,21.3131021 3.69704058,23.7358912 5.35611835,25.3833878 C5.51877303,25.5449071 5.71395865,25.7064263 5.87661333,25.8679456 C4.73803055,25.4802994 3.69704058,24.8665261 2.85123623,24.0266259 Z M23.5734428,18.1796282 L17.2949721,24.446576 C14.269595,27.4508345 9.32489261,27.4508345 6.29951551,24.446576 C4.99827805,23.1544218 4.47778306,21.2484944 4.96574711,19.4717824 C4.96574711,19.4717824 4.96574711,19.4394786 4.96574711,19.4394786 C5.32358741,18.1150205 5.4862421,16.7905625 5.4862421,15.4338006 L5.4862421,15.4338006 C5.4862421,15.4338006 5.4862421,15.4338006 5.4862421,15.4338006 L5.4862421,12.0418959 L5.4862421,12.0418959 L5.4862421,11.9449843 L5.4862421,10.7497417 C5.4862421,10.5559186 5.64889678,10.3620955 5.8440824,10.3620955 C6.68988675,10.2651839 7.43809829,10.8789571 7.5356911,11.6865535 L7.76340766,14.9492428 C7.82846953,15.4338006 8.1537789,15.8537507 8.60921201,16.01527 C9.09717606,16.1767893 9.58514011,16.0475739 9.94298041,15.7245353 L16.3841059,9.32837212 C16.5792915,9.134549 16.7419462,9.03763743 17.0672555,9.06994129 C17.327503,9.06994129 17.5552196,9.19915671 17.7178743,9.36067598 C18.0106527,9.68371452 17.9781217,10.3297916 17.6202814,10.685134 L17.6202814,10.685134 C17.6202814,10.685134 17.6202814,10.685134 17.6202814,10.685134 L12.8382338,15.4661045 C12.5779863,15.7245353 12.5779863,16.1444854 12.8382338,16.4029163 C12.9683575,16.5321317 13.1310122,16.5967394 13.3261978,16.5967394 C13.4888525,16.5967394 13.6840381,16.5321317 13.8141619,16.4029163 L18.6287405,11.6219458 C18.6287405,11.6219458 18.6287405,11.6219458 18.6287405,11.6219458 L19.897447,10.3620955 C20.2552873,10.0067531 20.8408442,10.0067531 21.1986845,10.3620955 C21.3613391,10.5236147 21.458932,10.7497417 21.458932,11.0081726 C21.458932,11.2666034 21.3613391,11.4927304 21.1986845,11.6542496 L15.0828684,17.6950704 C14.8226209,17.9535013 14.8226209,18.3734514 15.0828684,18.6318822 C15.2129921,18.7610976 15.3756468,18.8257053 15.5708324,18.8257053 C15.7660181,18.8257053 15.9286727,18.7610976 16.0587965,18.6318822 L19.4745448,15.2399775 L21.2962773,13.4309616 C21.6541176,13.0756192 22.2396744,13.0756192 22.5975147,13.4309616 C22.955355,13.786304 22.955355,14.3677734 22.5975147,14.7231158 L21.3613391,15.9506623 C21.3613391,15.9506623 21.3613391,15.9506623 21.3613391,15.9506623 L20.4504729,16.8228664 L17.327503,19.9240364 C17.0672555,20.1824672 17.0672555,20.6024173 17.327503,20.8608482 C17.4576268,20.9900636 17.6202814,21.0546713 17.8154671,21.0546713 C18.0106527,21.0546713 18.1733074,20.9900636 18.3034311,20.8608482 L22.3047363,16.8874741 C22.6625766,16.5321317 23.2481335,16.5321317 23.6059738,16.8874741 C23.7686285,17.0489933 23.8662213,17.2751203 23.8662213,17.5335512 C23.8662213,17.791982 23.7686285,18.018109 23.5734428,18.1796282 Z M19.376952,4.41818625 L21.0360298,0.897066112 C21.1986845,0.574027568 21.5890557,0.412508295 21.9143651,0.574027568 C22.2396744,0.73554684 22.4023291,1.12319309 22.2396744,1.44623164 L20.6131276,4.99965563 C20.4830039,5.25808646 20.2552873,5.38730188 19.9950398,5.38730188 C19.897447,5.38730188 19.7998542,5.35499803 19.7022614,5.32269417 C19.376952,5.1611749 19.2468283,4.74122479 19.376952,4.41818625 Z M15.8961418,0.832458403 C15.798549,0.477116004 16.0262655,0.121773605 16.3841059,0.0248620419 C16.7419462,-0.0720495214 17.0997865,0.121773605 17.1973793,0.477116004 L18.2058383,4.22436312 C18.3034311,4.57970552 18.0757146,4.93504792 17.7178743,5.03195948 C17.6528124,5.03195948 17.5877505,5.06426334 17.5552196,5.06426334 C17.2624411,5.06426334 17.0021936,4.87044021 16.9046008,4.57970552 L15.8961418,0.832458403 Z M25.6228918,5.35499803 L22.0770198,7.0024946 C21.9794269,7.03479846 21.8818341,7.06710231 21.7842413,7.06710231 C21.5239938,7.06710231 21.2962773,6.9378869 21.1661535,6.67945606 C21.0034988,6.35641752 21.1661535,5.93646741 21.4914629,5.80725199 L25.037335,4.15975541 C25.3626444,3.99823614 25.7855465,4.15975541 25.9156703,4.48279396 C26.1108559,4.8058325 25.9482012,5.19347875 25.6228918,5.35499803 Z" id="clapclap" fill="#0090A1" fill-rule="nonzero"></path>
</svg>
