<?xml version="1.0" encoding="UTF-8"?>
<svg width="28px" height="28px" viewBox="0 0 28 28" version="1.1" xmlns="http://www.w3.org/2000/svg" xmlns:xlink="http://www.w3.org/1999/xlink">
    <path d="M14,23.5511111 C16.8933333,23.5511111 19.2577778,21.1866667 19.2577778,18.2933333 L8.74222222,18.2933333 C8.74222222,21.1866667 11.1066667,23.5511111 14,23.5511111 Z M14,0 C6.25333333,0 0,6.25333333 0,14 C0,21.7466667 6.25333333,28 14,28 C21.7466667,28 28,21.7466667 28,14 C28,6.25333333 21.7466667,0 14,0 Z M14,26.4444444 C7.12444444,26.4444444 1.55555556,20.8755556 1.55555556,14 C1.55555556,7.12444444 7.12444444,1.55555556 14,1.55555556 C20.8755556,1.55555556 26.4444444,7.12444444 26.4444444,14 C26.4444444,20.8755556 20.8755556,26.4444444 14,26.4444444 Z M11.1377778,12.7866667 C11.9777778,11.9466667 11.9777778,10.6088889 11.1377778,9.76888889 C10.2977778,8.92888889 8.96,8.92888889 8.12,9.76888889 L7.59111111,10.2977778 L7.06222222,9.76888889 C6.22222222,8.92888889 4.88444444,8.92888889 4.04444444,9.76888889 C3.20444444,10.6088889 3.20444444,11.9466667 4.04444444,12.7866667 L4.57333333,13.3155556 L7.59111111,16.3333333 L10.6088889,13.3155556 L11.1377778,12.7866667 Z M23.6133333,9.76888889 C22.7733333,8.92888889 21.4355556,8.92888889 20.5955556,9.76888889 L20.0666667,10.2977778 L19.5377778,9.76888889 C18.6977778,8.92888889 17.36,8.92888889 16.52,9.76888889 C15.68,10.6088889 15.68,11.9466667 16.52,12.7866667 L17.0488889,13.3155556 L20.0666667,16.3333333 L23.0844444,13.3155556 L23.6133333,12.7866667 C24.4533333,11.9466667 24.4533333,10.5777778 23.6133333,9.76888889 Z" id="fantastisch" fill="#EB5E65" fill-rule="nonzero"></path>
</svg>
