<?xml version="1.0" encoding="UTF-8"?>
<svg width="25px" height="28px" viewBox="0 0 25 28" version="1.1" xmlns="http://www.w3.org/2000/svg" xmlns:xlink="http://www.w3.org/1999/xlink">
    <path d="M7.21378505,7.04421053 C8.73247664,5.57052632 10.7476636,4.83368421 12.8504673,4.92210526 C16.7640187,5.09894737 19.9474299,8.34105263 20.1518692,12.32 C20.239486,14.1473684 19.6553738,15.9747368 18.5163551,17.4189474 C17.6242566,18.5443062 16.998267,19.6428099 16.5875837,20.7913619 L16.5303738,20.9557895 L16.5011682,21.0442105 L16.5011682,24.1094737 C16.5011682,24.5221053 16.2091121,24.8463158 15.8294393,24.9052632 C15.6834112,26.6442105 14.2523364,28 12.5,28 C10.7476636,28 9.31658879,26.6442105 9.17056075,24.9347368 C8.80739537,24.8783524 8.52439358,24.5523033 8.50047125,24.1887355 L8.49883178,24.1389474 L8.49883178,21.0442105 L8.46962617,20.9557895 C8.07933305,19.8022967 7.47615278,18.7025141 6.60928273,17.5539041 L6.48364486,17.3894737 C5.40303738,16.0042105 4.84813084,14.3536842 4.84813084,12.6147368 C4.84813084,10.4926316 5.69509346,8.51789474 7.21378505,7.04421053 Z M14.2231308,24.9052632 L10.7768692,24.9052632 C10.9228972,25.7305263 11.6238318,26.3789474 12.5,26.3789474 C13.3518302,26.3789474 14.0380268,25.7939084 14.2096855,24.9759372 L14.2231308,24.9052632 Z M14.8948598,21.3684211 L10.1051402,21.3684211 L10.1051402,23.3136842 L14.8948598,23.3136842 L14.8948598,21.3684211 Z M12.8212617,6.51368421 C11.1273364,6.42526316 9.55023364,7.04421053 8.35280374,8.19368421 C7.15537383,9.37263158 6.48364486,10.9347368 6.48364486,12.6147368 C6.48364486,14 6.92172897,15.2968421 7.76869159,16.3873684 C8.5961838,17.4451462 9.21527057,18.502924 9.67515873,19.5607018 L9.7546729,19.7473684 L15.2453271,19.7473684 C15.6866563,18.6617544 16.2842895,17.6287199 17.0874337,16.5737773 L17.2313084,16.3873684 C18.1366822,15.2378947 18.603972,13.8231579 18.5747664,12.32 C18.4287383,9.22526316 15.9170561,6.66105263 12.8212617,6.51368421 Z M1.9567757,17.8315789 L3.24182243,17.0947368 C3.62149533,16.8589474 4.11799065,17.0063158 4.35163551,17.3894737 C4.57629403,17.7578947 4.44992362,18.208066 4.10234266,18.4517656 L4.05957944,18.48 L2.77453271,19.2168421 C2.62850467,19.3052632 2.51168224,19.3347368 2.36565421,19.3347368 C2.07359813,19.3347368 1.81074766,19.1873684 1.66471963,18.9221053 C1.44006111,18.5536842 1.56643152,18.1035129 1.91401248,17.8598134 L1.9567757,17.8315789 Z M20.6522877,17.4341839 L20.6775701,17.3894737 C20.8741463,17.0210526 21.3407448,16.8706322 21.713874,17.0692224 L23.0432243,17.8315789 C23.4228972,18.0673684 23.5397196,18.5389474 23.364486,18.9221053 C23.2184579,19.1873684 22.9264019,19.3347368 22.6635514,19.3347368 C22.5383845,19.3347368 22.4132176,19.2914286 22.3064426,19.2419334 L22.2546729,19.2168421 L20.9696262,18.48 C20.6045561,18.2816194 20.4555038,17.8107381 20.6522877,17.4341839 L20.6522877,17.4341839 Z M2.27803738,11.8189474 C2.7161215,11.8189474 3.06658879,12.1726316 3.06658879,12.6147368 C3.06658879,13.0410526 2.74070785,13.4125564 2.32462772,13.4121218 L2.27803738,13.4105263 L0.788551402,13.4105263 C0.35046729,13.4105263 0,13.0568421 0,12.6147368 C0,12.1896356 0.32402671,11.8462846 0.738407022,11.8205019 L0.788551402,11.8189474 L2.27803738,11.8189474 Z M24.2114486,11.8189474 C24.6495327,11.8189474 25,12.1726316 25,12.6147368 C25,13.0398381 24.6759733,13.383189 24.261593,13.4089718 L24.2114486,13.4105263 L22.7219626,13.4105263 C22.2838785,13.4105263 21.9334112,13.0568421 21.9334112,12.6147368 C21.9334112,12.1896356 22.2574379,11.8462846 22.6718182,11.8205019 L22.7219626,11.8189474 L24.2114486,11.8189474 Z M1.63943723,6.35207867 L1.66471963,6.30736842 C1.86129583,5.93894737 2.32789429,5.78852694 2.70102351,5.98711712 L4.03037383,6.74947368 C4.41004673,6.98526316 4.55607477,7.48631579 4.35163551,7.84 C4.20560748,8.10526316 3.9135514,8.25263158 3.65070093,8.25263158 C3.52553405,8.25263158 3.40036716,8.20932331 3.29359214,8.15982814 L3.24182243,8.13473684 L1.9567757,7.39789474 C1.59170561,7.19951417 1.44265332,6.72863282 1.63943723,6.35207867 L1.63943723,6.35207867 Z M20.9696262,6.74947368 L22.2546729,6.01263158 C22.6343458,5.77684211 23.1016355,5.92421053 23.3352804,6.30736842 C23.5599389,6.67578947 23.4335685,7.12596076 23.0859875,7.3696603 L23.0432243,7.39789474 L21.7581776,8.13473684 C21.6121495,8.22315789 21.4953271,8.25263158 21.3492991,8.25263158 C21.0864486,8.25263158 20.8235981,8.13473684 20.6775701,7.84 C20.4529116,7.47157895 20.579282,7.02140766 20.926863,6.77770812 L20.9696262,6.74947368 Z M6.27920561,1.70947368 C6.6442757,1.48275304 7.09035247,1.6102834 7.33183545,1.96105479 L7.35981308,2.00421053 L8.08995327,3.30105263 C8.32359813,3.68421053 8.17757009,4.15578947 7.7978972,4.39157895 C7.65186916,4.48 7.53504673,4.50947368 7.38901869,4.50947368 C7.11521612,4.50947368 6.86708254,4.37995066 6.71681199,4.14519017 L6.68808411,4.09684211 L5.98714953,2.8 C5.75350467,2.41684211 5.89953271,1.94526316 6.27920561,1.70947368 Z M16.9392523,3.30105263 L17.6693925,2.00421053 C17.8659687,1.63578947 18.3325672,1.48536904 18.7056964,1.68395923 L18.75,1.70947368 C19.1150701,1.90785425 19.2641224,2.3787356 19.0673385,2.75528975 L18.3119159,4.09684211 C18.1658879,4.36210526 17.8738318,4.50947368 17.6109813,4.50947368 C17.4649533,4.50947368 17.3189252,4.45052632 17.2021028,4.39157895 C16.8376168,4.16522105 16.7153738,3.69439663 16.9128916,3.3441757 L16.9392523,3.30105263 Z M12.5,0 C12.9212347,0 13.2614628,0.327000934 13.287011,0.745184821 L13.2885514,0.795789474 L13.2885514,2.29894737 C13.2885514,2.74105263 12.9380841,3.09473684 12.5,3.09473684 C12.0787653,3.09473684 11.7385372,2.76773591 11.712989,2.34955202 L11.7114486,2.29894737 L11.7114486,0.795789474 C11.7114486,0.353684211 12.0619159,0 12.5,0 Z" id="guteidee" fill="#EE9E2D" fill-rule="nonzero"></path>
</svg>
